PathFileType	4	(X/Y/Z)	./resultDataOpenSim/trcMotMarkerGrf/sub06/qtm-04-07.trc
DataRate	CameraRate	NumFrames	NumMarkers	Units	OrigDataRate	OrigDataStartFrame	OrigNumFrames
250.000000	250.000000	6	24	m	250.000000	347	554
Frame#	Time	L.Toe.Tip			R.Toe.Tip			L.Ankle.Lat			R.Ankle.Lat			L.Ankle.Med			R.Ankle.Med			L.Heel			R.Heel			L.Knee.Lat			R.Knee.Lat			L.Knee.Med			R.Knee.Med			L.Thigh.Upper			R.Thigh.Upper			L.ASIS			R.ASIS			V.Sacral			L.Acromium			R.Acromium			C7			L.Elbow			R.Elbow			L.Wrist.Lat			R.Wrist.Lat
		X1	Y1	Z1	X2	Y2	Z2	X3	Y3	Z3	X4	Y4	Z4	X5	Y5	Z5	X6	Y6	Z6	X7	Y7	Z7	X8	Y8	Z8	X9	Y9	Z9	X10	Y10	Z10	X11	Y11	Z11	X12	Y12	Z12	X13	Y13	Z13	X14	Y14	Z14	X15	Y15	Z15	X16	Y16	Z16	X17	Y17	Z17	X18	Y18	Z18	X19	Y19	Z19	X20	Y20	Z20	X21	Y21	Z21	X22	Y22	Z22	X23	Y23	Z23	X24	Y24	Z24

347	1.384	0.31946087	0.087358789	-0.024723054	0.88663283	0.035860676	0.10954116	0.33518044	0.21195943	-0.072414005	0.75224659	0.060068586	0.14295015	0.3543822	0.22596187	0.0085252579	0.76656329	0.080842946	0.055225598	0.29291844	0.27775388	-0.032855737	0.69307433	0.038243635	0.089014989	0.6791618	0.36348343	-0.10884777	0.83705964	0.43951899	0.16358907	0.68013858	0.35566934	0.012714014	0.79470665	0.427422	0.043903597	0.62524734	0.75850103	-0.11289541	0.68614106	0.78461056	0.22821424	0.71028349	0.80860793	-0.084799227	0.76024125	0.82876779	0.15580797	0.55450971	0.90282363	0.069514572	0.70850027	1.303977	-0.12521913	0.71430427	1.2819746	0.23728492	0.63699222	1.337614	0.058631681	0.6520981	0.98518718	-0.18327954	0.60182729	0.98083141	0.29737711	0.82357154	0.80604386	-0.17890127	0.76073338	0.79890752	0.35183109
348	1.388	0.3326673	0.090529124	-0.024348778	0.88653452	0.035879583	0.10958548	0.34758107	0.21517535	-0.07211858	0.75214379	0.060030438	0.14305079	0.36683433	0.22925538	0.0087877652	0.76643299	0.081020607	0.055450851	0.30516439	0.28074563	-0.032561147	0.69298305	0.03828707	0.089111037	0.691304	0.36654058	-0.10897401	0.8380576	0.43952477	0.16394544	0.69275333	0.35859085	0.0127231	0.79593148	0.42754764	0.044091228	0.6314931	0.76114586	-0.11301825	0.69104853	0.78633275	0.22827828	0.71610466	0.81104995	-0.084462183	0.76533448	0.83096753	0.15634385	0.5599153	0.9050085	0.069337383	0.71355675	1.306401	-0.12520953	0.7199073	1.2845585	0.23727377	0.6426182	1.3398083	0.05855618	0.65587478	0.98805384	-0.18245014	0.60853322	0.98275731	0.29759893	0.82577756	0.80737106	-0.1798336	0.77037578	0.80289933	0.35076935
349	1.392	0.34600157	0.093464739	-0.02405468	0.88643025	0.035899343	0.10962216	0.36005924	0.21818396	-0.071848418	0.75202352	0.060008612	0.14314969	0.37943786	0.23227534	0.0090011245	0.76629733	0.081179609	0.055647708	0.31734624	0.28348151	-0.032048882	0.6928885	0.038325432	0.089211825	0.70341639	0.36971914	-0.10911286	0.8389442	0.43956133	0.16419052	0.7050578	0.36167047	0.012818023	0.79705442	0.42764532	0.044212453	0.63772725	0.76379359	-0.11333222	0.69623553	0.78808862	0.2282867	0.72200395	0.81350287	-0.084114455	0.77044483	0.83317803	0.156859	0.5652606	0.90717311	0.069174096	0.71858406	1.3088141	-0.12517508	0.72549587	1.2871355	0.23725397	0.64827291	1.3419579	0.058432776	0.65982231	0.99084557	-0.18190513	0.61524314	0.98469644	0.29783402	0.8279831	0.80872865	-0.18075753	0.77994834	0.80690496	0.34965918
350	1.396	0.35948843	0.096155655	-0.023898206	0.88632496	0.035917577	0.10965199	0.37262086	0.22096666	-0.071598816	0.75190219	0.059987337	0.14324248	0.39220816	0.23501946	0.0091480098	0.76616	0.081317671	0.05580723	0.32947652	0.28596573	-0.031389921	0.69279393	0.038353835	0.089317906	0.71545898	0.37300724	-0.10923014	0.83974947	0.43962842	0.16436012	0.71723536	0.36489781	0.012903046	0.79805931	0.42772084	0.044270022	0.64402537	0.76646004	-0.11387759	0.70148359	0.78985243	0.22825215	0.72797981	0.81598415	-0.083753067	0.77557786	0.83538912	0.1573621	0.5705444	0.90933032	0.069036347	0.72359499	1.3112096	-0.12513024	0.73106823	1.2896986	0.23722321	0.65383809	1.3441278	0.058366136	0.6637975	0.99359545	-0.18156176	0.62195885	0.98664419	0.29809345	0.83020058	0.81011065	-0.18166366	0.78948927	0.81094712	0.34852289
351	1.4	0.37315641	0.098598646	-0.023904836	0.88622389	0.035933342	0.10967366	0.38524523	0.22352399	-0.07136223	0.75179704	0.059954801	0.14332786	0.40504914	0.23751418	0.0092698528	0.76601886	0.081444381	0.055942542	0.34160605	0.28818464	-0.030693911	0.69269997	0.038374627	0.08943331	0.72739905	0.37638949	-0.10929836	0.84049123	0.43972686	0.16448338	0.72938249	0.36826138	0.012934819	0.79884118	0.42778442	0.044308867	0.65045264	0.76916511	-0.11443767	0.70643733	0.79158508	0.22822435	0.73403203	0.81849925	-0.083368256	0.78073421	0.83759145	0.15785361	0.57578921	0.91148622	0.068929767	0.72860812	1.3135822	-0.12508577	0.73662502	1.2922403	0.23718191	0.65927168	1.3463358	0.058396175	0.66762207	0.99635464	-0.18128103	0.6286859	0.98859687	0.29838255	0.83240231	0.81150934	-0.18257108	0.79901945	0.81503695	0.34736207
352	1.404	0.38703808	0.10080045	-0.024073646	0.88613048	0.035948304	0.10968501	0.3978975	0.22587385	-0.071138541	0.75170961	0.059917122	0.1434127	0.41787248	0.2397867	0.0094071707	0.76587361	0.081570631	0.056070728	0.35374832	0.29011387	-0.029979668	0.69260992	0.038393618	0.089554848	0.73925654	0.37986288	-0.10933932	0.84116619	0.43985274	0.16457587	0.74150776	0.37174299	0.012940501	0.79933799	0.42785093	0.044377094	0.65702403	0.77189768	-0.1147247	0.71094239	0.79323489	0.22821966	0.74016595	0.82104476	-0.082957725	0.78591047	0.83977279	0.15832656	0.58105697	0.91362994	0.068911964	0.73363545	1.3159281	-0.12504267	0.74216964	1.2947541	0.23713301	0.66461645	1.3485512	0.05848684	0.67120185	0.99915164	-0.18095055	0.63542894	0.99055046	0.29869608	0.83453753	0.81291809	-0.18351455	0.80853075	0.81915531	0.34616618
